<?xml version="1.0" encoding="UTF-8"?>
<svg version="1.1" viewBox="0 0 2048 2048" width="1280" height="1280" xmlns="http://www.w3.org/2000/svg">
<path transform="translate(1313,243)" d="m0 0 36 6 40 8 55 13 59 16 45 14 36 12 39 14 60 24 35 15 16 8 7 8 33 51 13 21 17 28 15 26 14 25 13 24 15 29 11 21 11 23 14 30 15 34 19 46 18 48 11 31 16 50 12 42 10 38 10 42 10 48 8 45 8 54 5 44 5 58 4 58v120l-5 81-4 45-9 8-19 13-15 11-39 26-20 13-24 15-20 12-17 10-23 13-18 10-32 17-48 24-33 15-34 15-37 15-29 11-30 11-44 15-23 7h-6l-10-13-13-19-14-21-11-17-15-24-14-24-12-21-15-28-3-6v-6l7-4 19-8 29-12 35-16 36-18 23-13 14-8 4-4-2-4-5-5-9-8-17-13-3-2-7 1-29 13-39 16-43 16-49 16-39 11-48 12-38 8-54 9-39 5-42 4-29 2-22 1h-84l-38-2-46-4-39-5-45-7-44-9-43-10-37-10-39-12-50-17-41-16-28-12-23-10-5 1-11 8-16 13-7 6v5l6 5 24 13 22 12 16 8 25 12 18 8 28 12 20 8 7 5-1 6-8 16-12 23-14 24-17 29-10 15-16 25-11 15-13 19-5 6-10-1-46-15-45-16-46-18-31-13-29-13-24-11-33-16-32-16-22-12-27-15-49-29-24-15-29-19-25-17-20-14-18-13-9-7-1-2-5-62-3-45v-148l7-89 7-62 8-53 8-45 10-48 12-50 10-37 14-47 12-37 16-45 15-39 17-41 12-27 15-33 17-35 14-28 12-22 16-30 14-24 12-21 9-15 16-26 12-19 15-23 10-15 5-4 28-13 38-16 20-8 29-11 39-14 42-14 58-17 43-11 29-7 42-9 43-8h10l13 23 22 43 15 33 4 9 12-1 46-6 41-4 43-3 49-2h86l46 2 45 3 40 4 55 7h5l20-44 24-48 9-15zm-638 652-18 2-21 5-20 7-19 10-17 12-14 12-13 13-11 14-10 15-9 16-9 21-7 22-4 19-3 28v22l3 26 5 23 8 24 9 20 12 20 13 17 14 15 10 9 13 10 18 11 19 9 19 6 20 4 10 1h22l17-2 21-5 19-7 16-8 14-9 13-10 12-11 9-9 13-17 9-14 11-21 8-21 5-17 4-21 2-17v-37l-3-23-6-25-5-15-8-18-9-17-11-16-12-14-17-17-16-12-15-9-21-10-23-7-18-3-10-1zm680 0-23 3-19 5-16 6-21 11-17 12-12 11-4 3v2h-2l-7 8-11 13-13 20-9 17-10 26-5 19-3 15-2 19v35l4 27 4 17 7 21 8 18 11 19 10 14 11 13 17 17 13 10 18 11 16 8 16 6 21 5 17 2h22l23-3 21-6 15-6 19-10 13-9 10-8 12-11 12-13 11-15 9-15 8-16 8-20 6-21 4-23 2-23v-19l-2-22-5-26-9-27-12-25-7-11-10-14-12-14-11-11-14-11-15-10-17-9-21-8-17-4-12-2-11-1z" fill="#5664F4"/>
</svg>
